<svg width="20" height="20" viewBox="0 0 20 20" fill="none" xmlns="http://www.w3.org/2000/svg">
<path id="Community" fill-rule="evenodd" clip-rule="evenodd" d="M0.307746 9.84934C0.647624 10.1042 1.12979 10.0354 1.3847 9.69549C2.329 8.43642 3.81098 7.69543 5.38482 7.69543C6.95865 7.69543 8.44063 8.43642 9.38493 9.69549C9.64014 10.035 10.1223 10.1035 10.4619 9.84838C10.52 9.80514 10.5715 9.75363 10.6148 9.69549C11.5591 8.43642 13.0411 7.69543 14.6149 7.69543C16.1887 7.69543 17.6707 8.43642 18.615 9.69549C18.8702 10.0354 19.3526 10.104 19.6924 9.84886C20.0323 9.59368 20.101 9.1113 19.8458 8.77142C19.1649 7.85858 18.2569 7.13986 17.2121 6.68675C18.3845 5.61635 18.7788 3.93561 18.2048 2.45549C17.6307 0.975367 16.2063 0 14.6187 0C13.0312 0 11.6068 0.975367 11.0327 2.45549C10.4587 3.93561 10.853 5.61635 12.0254 6.68675C11.271 7.01296 10.5857 7.47995 10.0061 8.06275C9.42654 7.47995 8.74122 7.01296 7.98682 6.68675C9.15922 5.61635 9.55353 3.93561 8.97949 2.45549C8.40544 0.975367 6.98101 0 5.39347 0C3.80593 0 2.3815 0.975367 1.80746 2.45549C1.23342 3.93561 1.62772 5.61635 2.80013 6.68675C1.75072 7.13839 0.838243 7.85756 0.153896 8.77238C0.0314848 8.9356 -0.021076 9.14076 0.00777658 9.34272C0.0366292 9.54469 0.144532 9.72693 0.307746 9.84934ZM14.6159 1.5414C15.8904 1.5414 16.9236 2.57462 16.9236 3.84916C16.9236 5.1237 15.8904 6.15692 14.6159 6.15692C13.3413 6.15692 12.3081 5.1237 12.3081 3.84916C12.3081 2.57462 13.3413 1.5414 14.6159 1.5414ZM5.38482 1.5414C6.65936 1.5414 7.69258 2.57462 7.69258 3.84916C7.69258 5.1237 6.65936 6.15692 5.38482 6.15692C4.11028 6.15692 3.07706 5.1237 3.07706 3.84916C3.07706 2.57462 4.11028 1.5414 5.38482 1.5414ZM17.2121 16.687C18.3845 15.6166 18.7788 13.9359 18.2048 12.4558C17.6307 10.9757 16.2063 10.0003 14.6187 10.0003C13.0312 10.0003 11.6068 10.9757 11.0327 12.4558C10.4587 13.9359 10.853 15.6166 12.0254 16.687C11.271 17.0132 10.5857 17.4802 10.0061 18.063C9.42654 17.4802 8.74122 17.0132 7.98682 16.687C9.15922 15.6166 9.55353 13.9359 8.97949 12.4558C8.40544 10.9757 6.98101 10.0003 5.39347 10.0003C3.80593 10.0003 2.3815 10.9757 1.80746 12.4558C1.23342 13.9359 1.62772 15.6166 2.80013 16.687C1.75072 17.1387 0.838243 17.8579 0.153896 18.7727C-0.101012 19.1126 -0.032131 19.5947 0.307746 19.8496C0.647624 20.1045 1.12979 20.0357 1.3847 19.6958C2.329 18.4367 3.81098 17.6957 5.38482 17.6957C6.95865 17.6957 8.44063 18.4367 9.38493 19.6958C9.64014 20.0353 10.1223 20.1038 10.4619 19.8487C10.52 19.8054 10.5715 19.7539 10.6148 19.6958C11.5591 18.4367 13.0411 17.6957 14.6149 17.6957C16.1887 17.6957 17.6707 18.4367 18.615 19.6958C18.8702 20.0357 19.3526 20.1043 19.6924 19.8491C20.0323 19.594 20.101 19.1116 19.8458 18.7717C19.1649 17.8589 18.2569 17.1402 17.2121 16.687ZM5.38482 11.5417C6.65936 11.5417 7.69258 12.5749 7.69258 13.8495C7.69258 15.124 6.65936 16.1572 5.38482 16.1572C4.11028 16.1572 3.07706 15.124 3.07706 13.8495C3.07706 12.5749 4.11028 11.5417 5.38482 11.5417ZM14.6159 11.5417C15.8904 11.5417 16.9236 12.5749 16.9236 13.8495C16.9236 15.124 15.8904 16.1572 14.6159 16.1572C13.3413 16.1572 12.3081 15.124 12.3081 13.8495C12.3081 12.5749 13.3413 11.5417 14.6159 11.5417Z" fill="white"/>
</svg>
