<svg width="20" height="14" viewBox="0 0 20 14" fill="none" xmlns="http://www.w3.org/2000/svg">
<path id="Dashboard" fill-rule="evenodd" clip-rule="evenodd" d="M20 9.94225V12.0851C20 12.8741 19.3604 13.5137 18.5714 13.5137H8.92232C8.78799 13.5138 8.66497 13.4385 8.60392 13.3189C8.54287 13.1992 8.55412 13.0554 8.63304 12.9467L14.1312 5.38868C14.3681 5.0741 14.3141 4.62862 14.0089 4.37975C13.8563 4.26133 13.6622 4.20978 13.4709 4.23687C13.2797 4.26395 13.1075 4.36736 12.9937 4.5235L6.56518 13.3681C6.49681 13.4611 6.38772 13.5153 6.27232 13.5137H1.42857C0.639593 13.5137 0 12.8741 0 12.0851V10.0431C0 9.88332 -1.77395e-08 9.72439 0.0116071 9.56725C0.0211308 9.37701 0.178274 9.22773 0.36875 9.22797H2.85714C3.05507 9.2284 3.24431 9.14668 3.37972 9.00231C3.51512 8.85794 3.58454 8.66386 3.57143 8.46636C3.53865 8.08462 3.21613 7.7933 2.83304 7.79939H0.707143C0.59673 7.79931 0.492563 7.74816 0.424981 7.66085C0.3574 7.57354 0.334004 7.45987 0.361607 7.35296C1.43304 3.43868 4.79554 0.466358 8.89018 0.00653651C8.99135 -0.00440495 9.09239 0.0283342 9.16792 0.0965338C9.24345 0.164734 9.2863 0.261916 9.28571 0.363679V2.79939C9.28528 2.99733 9.36699 3.18656 9.51137 3.32197C9.65574 3.45737 9.84982 3.52679 10.0473 3.51368C10.4291 3.4809 10.7204 3.15838 10.7143 2.77529V0.359215C10.7137 0.257451 10.7565 0.160269 10.8321 0.0920697C10.9076 0.0238701 11.0086 -0.00886951 11.1098 0.00207195C15.2007 0.46177 18.5937 3.37772 19.6634 7.35296C19.691 7.46002 19.6675 7.57385 19.5997 7.6612C19.532 7.74856 19.4275 7.79959 19.317 7.79939H17.167C16.7846 7.79425 16.4631 8.08532 16.4304 8.46636C16.4172 8.66386 16.4867 8.85794 16.6221 9.00231C16.7575 9.14668 16.9467 9.2284 17.1446 9.22797H19.6375C19.83 9.22785 19.9879 9.38026 19.9946 9.57261C20 9.69493 20 9.81814 20 9.94225Z" fill="white"/>
</svg>
