<svg width="197" height="54" viewBox="0 0 197 54" fill="none" xmlns="http://www.w3.org/2000/svg">
<path d="M32.4148 0.0909081V35H25.2557L11.3636 14.8523H11.142V35H2.70455V0.0909081H9.96591L23.7045 20.2045H23.9943V0.0909081H32.4148ZM49.9588 35.4943C47.2202 35.4943 44.8565 34.9545 42.8679 33.875C40.8906 32.7841 39.3679 31.233 38.2997 29.2216C37.2429 27.1989 36.7145 24.7955 36.7145 22.0114C36.7145 19.3068 37.2486 16.9432 38.3168 14.9205C39.3849 12.8864 40.8906 11.3068 42.8338 10.1818C44.777 9.04545 47.0668 8.47727 49.7031 8.47727C51.5668 8.47727 53.2713 8.76705 54.8168 9.34659C56.3622 9.92614 57.6974 10.7841 58.8224 11.9205C59.9474 13.0568 60.8224 14.4602 61.4474 16.1307C62.0724 17.7898 62.3849 19.6932 62.3849 21.8409V23.9205H39.6293V19.0795H54.6293C54.6179 18.1932 54.4077 17.4034 53.9986 16.7102C53.5895 16.017 53.027 15.4773 52.3111 15.0909C51.6065 14.6932 50.794 14.4943 49.8736 14.4943C48.9418 14.4943 48.1065 14.7045 47.3679 15.125C46.6293 15.5341 46.044 16.0966 45.6122 16.8125C45.1804 17.517 44.9531 18.3182 44.9304 19.2159V24.142C44.9304 25.2102 45.1406 26.1477 45.5611 26.9545C45.9815 27.75 46.5781 28.3693 47.3509 28.8125C48.1236 29.2557 49.044 29.4773 50.1122 29.4773C50.8509 29.4773 51.5213 29.375 52.1236 29.1705C52.7259 28.9659 53.2429 28.6648 53.6747 28.267C54.1065 27.8693 54.4304 27.3807 54.6463 26.8011L62.2997 27.0227C61.9815 28.7386 61.2827 30.233 60.2031 31.5057C59.1349 32.767 57.7315 33.75 55.9929 34.4545C54.2543 35.1477 52.2429 35.4943 49.9588 35.4943ZM71.2528 35L64.4347 8.81818H72.804L76.3324 25.5909H76.554L80.3381 8.81818H88.5028L92.3892 25.4716H92.6108L96.0369 8.81818H104.406L97.571 35H88.6562L84.5653 19.7443H84.2756L80.1847 35H71.2528ZM112.021 35H102.953L114.732 0.0909081H125.964L137.743 35H128.675L120.476 8.88636H120.203L112.021 35ZM110.811 21.2614H129.766V27.6705H110.811V21.2614ZM152.065 45.3636C149.577 45.3636 147.446 45.017 145.673 44.3239C143.901 43.6307 142.509 42.6818 141.497 41.4773C140.486 40.2727 139.878 38.9091 139.673 37.3864L147.565 36.9432C147.713 37.4773 147.986 37.9432 148.384 38.3409C148.793 38.7386 149.321 39.0455 149.969 39.2614C150.628 39.4773 151.401 39.5852 152.287 39.5852C153.685 39.5852 154.838 39.2443 155.747 38.5625C156.668 37.892 157.128 36.7159 157.128 35.0341V30.4318H156.838C156.509 31.2386 156.009 31.9602 155.338 32.5966C154.668 33.233 153.832 33.733 152.832 34.0966C151.844 34.4602 150.707 34.642 149.423 34.642C147.514 34.642 145.764 34.1989 144.173 33.3125C142.594 32.4148 141.327 31.0284 140.372 29.1534C139.429 27.267 138.957 24.8409 138.957 21.875C138.957 18.8182 139.446 16.3011 140.423 14.3239C141.401 12.3352 142.679 10.8636 144.259 9.90909C145.849 8.95455 147.56 8.47727 149.389 8.47727C150.764 8.47727 151.94 8.71591 152.918 9.19318C153.906 9.65909 154.719 10.2614 155.355 11C155.991 11.7386 156.474 12.5057 156.804 13.3011H157.043V8.81818H165.344V35.1023C165.344 37.3182 164.787 39.1875 163.673 40.7102C162.56 42.233 161.003 43.3864 159.003 44.1705C157.003 44.9659 154.69 45.3636 152.065 45.3636ZM152.321 28.5739C153.332 28.5739 154.196 28.3068 154.912 27.7727C155.628 27.2386 156.179 26.4716 156.565 25.4716C156.952 24.4716 157.145 23.2727 157.145 21.875C157.145 20.4545 156.952 19.233 156.565 18.2102C156.19 17.1761 155.639 16.3807 154.912 15.8239C154.196 15.267 153.332 14.9886 152.321 14.9886C151.287 14.9886 150.412 15.2727 149.696 15.8409C148.98 16.4091 148.435 17.2102 148.06 18.2443C147.696 19.267 147.514 20.4773 147.514 21.875C147.514 23.2727 147.702 24.4716 148.077 25.4716C148.452 26.4716 148.991 27.2386 149.696 27.7727C150.412 28.3068 151.287 28.5739 152.321 28.5739ZM182.896 35.4943C180.158 35.4943 177.794 34.9545 175.805 33.875C173.828 32.7841 172.305 31.233 171.237 29.2216C170.18 27.1989 169.652 24.7955 169.652 22.0114C169.652 19.3068 170.186 16.9432 171.254 14.9205C172.322 12.8864 173.828 11.3068 175.771 10.1818C177.714 9.04545 180.004 8.47727 182.641 8.47727C184.504 8.47727 186.209 8.76705 187.754 9.34659C189.3 9.92614 190.635 10.7841 191.76 11.9205C192.885 13.0568 193.76 14.4602 194.385 16.1307C195.01 17.7898 195.322 19.6932 195.322 21.8409V23.9205H172.567V19.0795H187.567C187.555 18.1932 187.345 17.4034 186.936 16.7102C186.527 16.017 185.964 15.4773 185.249 15.0909C184.544 14.6932 183.732 14.4943 182.811 14.4943C181.879 14.4943 181.044 14.7045 180.305 15.125C179.567 15.5341 178.982 16.0966 178.55 16.8125C178.118 17.517 177.891 18.3182 177.868 19.2159V24.142C177.868 25.2102 178.078 26.1477 178.499 26.9545C178.919 27.75 179.516 28.3693 180.288 28.8125C181.061 29.2557 181.982 29.4773 183.05 29.4773C183.788 29.4773 184.459 29.375 185.061 29.1705C185.663 28.9659 186.18 28.6648 186.612 28.267C187.044 27.8693 187.368 27.3807 187.584 26.8011L195.237 27.0227C194.919 28.7386 194.22 30.233 193.141 31.5057C192.072 32.767 190.669 33.75 188.93 34.4545C187.192 35.1477 185.18 35.4943 182.896 35.4943Z" fill="white"/>
<path d="M4.17188 46.2734L4.17578 44.2773H4.41797L6.33984 42H8.25L5.66797 45.0156H5.27344L4.17188 46.2734ZM2.66406 48V40H4.32813V48H2.66406ZM6.41406 48L4.64844 45.3867L5.75781 44.2109L8.36328 48H6.41406ZM10.7305 44.5313V48H9.06641V42H10.6523V43.0586H10.7227C10.8555 42.7096 11.0781 42.4336 11.3906 42.2305C11.7031 42.0247 12.082 41.9219 12.5273 41.9219C12.944 41.9219 13.3073 42.013 13.6172 42.1953C13.9271 42.3776 14.168 42.638 14.3398 42.9766C14.5117 43.3125 14.5977 43.7135 14.5977 44.1797V48H12.9336V44.4766C12.9362 44.1094 12.8424 43.8229 12.6523 43.6172C12.4622 43.4089 12.2005 43.3047 11.8672 43.3047C11.6432 43.3047 11.4453 43.3529 11.2734 43.4492C11.1042 43.5456 10.9714 43.6862 10.875 43.8711C10.7813 44.0534 10.7331 44.2734 10.7305 44.5313ZM18.6201 48.1172C18.0133 48.1172 17.4886 47.9883 17.0459 47.7305C16.6058 47.4701 16.266 47.1081 16.0264 46.6445C15.7868 46.1784 15.667 45.638 15.667 45.0234C15.667 44.4036 15.7868 43.862 16.0264 43.3984C16.266 42.9323 16.6058 42.5703 17.0459 42.3125C17.4886 42.0521 18.0133 41.9219 18.6201 41.9219C19.2269 41.9219 19.7503 42.0521 20.1904 42.3125C20.6331 42.5703 20.9743 42.9323 21.2139 43.3984C21.4535 43.862 21.5732 44.4036 21.5732 45.0234C21.5732 45.638 21.4535 46.1784 21.2139 46.6445C20.9743 47.1081 20.6331 47.4701 20.1904 47.7305C19.7503 47.9883 19.2269 48.1172 18.6201 48.1172ZM18.6279 46.8281C18.904 46.8281 19.1344 46.75 19.3193 46.5938C19.5042 46.4349 19.6436 46.2187 19.7373 45.9453C19.8337 45.6719 19.8818 45.3607 19.8818 45.0117C19.8818 44.6628 19.8337 44.3516 19.7373 44.0781C19.6436 43.8047 19.5042 43.5885 19.3193 43.4297C19.1344 43.2708 18.904 43.1914 18.6279 43.1914C18.3493 43.1914 18.1149 43.2708 17.9248 43.4297C17.7373 43.5885 17.5954 43.8047 17.499 44.0781C17.4053 44.3516 17.3584 44.6628 17.3584 45.0117C17.3584 45.3607 17.4053 45.6719 17.499 45.9453C17.5954 46.2187 17.7373 46.4349 17.9248 46.5938C18.1149 46.75 18.3493 46.8281 18.6279 46.8281ZM23.6885 48L22.0557 42H23.7393L24.6689 46.0312H24.7236L25.6924 42H27.3447L28.3291 46.0078H28.3799L29.2939 42H30.9736L29.3447 48H27.583L26.5518 44.2266H26.4775L25.4463 48H23.6885ZM33.5254 40V48H31.8613V40H33.5254ZM37.5928 48.1172C36.9756 48.1172 36.4443 47.9922 35.999 47.7422C35.5563 47.4896 35.2152 47.1328 34.9756 46.6719C34.736 46.2083 34.6162 45.6602 34.6162 45.0273C34.6162 44.4102 34.736 43.8685 34.9756 43.4023C35.2152 42.9362 35.5524 42.5729 35.9873 42.3125C36.4248 42.0521 36.9378 41.9219 37.5264 41.9219C37.9222 41.9219 38.2907 41.9857 38.6318 42.1133C38.9756 42.2383 39.2751 42.4271 39.5303 42.6797C39.7881 42.9323 39.9886 43.25 40.1318 43.6328C40.2751 44.013 40.3467 44.4583 40.3467 44.9687V45.4258H35.2803V44.3945H38.7803C38.7803 44.1549 38.7282 43.9427 38.624 43.7578C38.5199 43.5729 38.3753 43.4284 38.1904 43.3242C38.0081 43.2174 37.7959 43.1641 37.5537 43.1641C37.3011 43.1641 37.0771 43.2227 36.8818 43.3398C36.6891 43.4544 36.5381 43.6094 36.4287 43.8047C36.3193 43.9974 36.2633 44.2122 36.2607 44.4492V45.4297C36.2607 45.7266 36.3154 45.9831 36.4248 46.1992C36.5368 46.4154 36.6943 46.582 36.8975 46.6992C37.1006 46.8164 37.3415 46.875 37.6201 46.875C37.805 46.875 37.9743 46.849 38.1279 46.7969C38.2816 46.7448 38.4131 46.6667 38.5225 46.5625C38.6318 46.4583 38.7152 46.3307 38.7725 46.1797L40.3115 46.2812C40.2334 46.651 40.0732 46.974 39.8311 47.25C39.5915 47.5234 39.2816 47.737 38.9014 47.8906C38.5238 48.0417 38.0876 48.1172 37.5928 48.1172ZM43.6436 48.0977C43.1878 48.0977 42.7751 47.9805 42.4053 47.7461C42.0381 47.5091 41.7464 47.1615 41.5303 46.7031C41.3167 46.2422 41.21 45.6771 41.21 45.0078C41.21 44.3203 41.3206 43.7487 41.542 43.293C41.7633 42.8346 42.0576 42.4922 42.4248 42.2656C42.7946 42.0365 43.1995 41.9219 43.6396 41.9219C43.9756 41.9219 44.2555 41.9792 44.4795 42.0938C44.7061 42.2057 44.8883 42.3464 45.0264 42.5156C45.167 42.6823 45.2738 42.8464 45.3467 43.0078H45.3975V40H47.0576V48H45.417V47.0391H45.3467C45.2686 47.2057 45.1579 47.3711 45.0146 47.5352C44.874 47.6966 44.6904 47.8307 44.4639 47.9375C44.2399 48.0443 43.9665 48.0977 43.6436 48.0977ZM44.1709 46.7734C44.4391 46.7734 44.6657 46.7005 44.8506 46.5547C45.0381 46.4062 45.1813 46.1992 45.2803 45.9336C45.3818 45.668 45.4326 45.3568 45.4326 45C45.4326 44.6432 45.3831 44.3333 45.2842 44.0703C45.1852 43.8073 45.042 43.6042 44.8545 43.4609C44.667 43.3177 44.4391 43.2461 44.1709 43.2461C43.8975 43.2461 43.667 43.3203 43.4795 43.4687C43.292 43.6172 43.1501 43.8229 43.0537 44.0859C42.9574 44.349 42.9092 44.6536 42.9092 45C42.9092 45.349 42.9574 45.6576 43.0537 45.9258C43.1527 46.1914 43.2946 46.3997 43.4795 46.5508C43.667 46.6992 43.8975 46.7734 44.1709 46.7734ZM51.1289 50.375C50.5898 50.375 50.1276 50.3008 49.7422 50.1523C49.3594 50.0065 49.0547 49.8073 48.8281 49.5547C48.6016 49.3021 48.4544 49.0182 48.3867 48.7031L49.9258 48.4961C49.9727 48.6159 50.0469 48.7279 50.1484 48.832C50.25 48.9362 50.3841 49.0195 50.5508 49.082C50.7201 49.1471 50.9258 49.1797 51.168 49.1797C51.5299 49.1797 51.8281 49.0911 52.0625 48.9141C52.2995 48.7396 52.418 48.4466 52.418 48.0352V46.9375H52.3477C52.2747 47.1042 52.1654 47.2617 52.0195 47.4102C51.8737 47.5586 51.6862 47.6797 51.457 47.7734C51.2279 47.8672 50.9544 47.9141 50.6367 47.9141C50.1862 47.9141 49.776 47.8099 49.4063 47.6016C49.0391 47.3906 48.7461 47.069 48.5273 46.6367C48.3112 46.2018 48.2031 45.6523 48.2031 44.9883C48.2031 44.3086 48.3138 43.7409 48.5352 43.2852C48.7565 42.8294 49.0508 42.4883 49.418 42.2617C49.7878 42.0352 50.1927 41.9219 50.6328 41.9219C50.9688 41.9219 51.25 41.9792 51.4766 42.0938C51.7031 42.2057 51.8854 42.3464 52.0234 42.5156C52.1641 42.6823 52.2721 42.8464 52.3477 43.0078H52.4102V42H54.0625V48.0586C54.0625 48.569 53.9375 48.9961 53.6875 49.3398C53.4375 49.6836 53.0911 49.9414 52.6484 50.1133C52.2083 50.2878 51.7018 50.375 51.1289 50.375ZM51.1641 46.6641C51.4323 46.6641 51.6589 46.5977 51.8438 46.4648C52.0313 46.3294 52.1745 46.1367 52.2734 45.8867C52.375 45.6341 52.4258 45.332 52.4258 44.9805C52.4258 44.6289 52.3763 44.3242 52.2773 44.0664C52.1784 43.806 52.0352 43.6042 51.8477 43.4609C51.6602 43.3177 51.4323 43.2461 51.1641 43.2461C50.8906 43.2461 50.6602 43.3203 50.4727 43.4687C50.2852 43.6146 50.1432 43.8177 50.0469 44.0781C49.9505 44.3385 49.9023 44.6393 49.9023 44.9805C49.9023 45.3268 49.9505 45.6263 50.0469 45.8789C50.1458 46.1289 50.2878 46.3229 50.4727 46.4609C50.6602 46.5964 50.8906 46.6641 51.1641 46.6641ZM58.1211 48.1172C57.5039 48.1172 56.9727 47.9922 56.5273 47.7422C56.0846 47.4896 55.7435 47.1328 55.5039 46.6719C55.2643 46.2083 55.1445 45.6602 55.1445 45.0273C55.1445 44.4102 55.2643 43.8685 55.5039 43.4023C55.7435 42.9362 56.0807 42.5729 56.5156 42.3125C56.9531 42.0521 57.4661 41.9219 58.0547 41.9219C58.4505 41.9219 58.819 41.9857 59.1602 42.1133C59.5039 42.2383 59.8034 42.4271 60.0586 42.6797C60.3164 42.9323 60.5169 43.25 60.6602 43.6328C60.8034 44.013 60.875 44.4583 60.875 44.9687V45.4258H55.8086V44.3945H59.3086C59.3086 44.1549 59.2565 43.9427 59.1523 43.7578C59.0482 43.5729 58.9036 43.4284 58.7188 43.3242C58.5365 43.2174 58.3242 43.1641 58.082 43.1641C57.8294 43.1641 57.6055 43.2227 57.4102 43.3398C57.2174 43.4544 57.0664 43.6094 56.957 43.8047C56.8477 43.9974 56.7917 44.2122 56.7891 44.4492V45.4297C56.7891 45.7266 56.8438 45.9831 56.9531 46.1992C57.0651 46.4154 57.2227 46.582 57.4258 46.6992C57.6289 46.8164 57.8698 46.875 58.1484 46.875C58.3333 46.875 58.5026 46.849 58.6563 46.7969C58.8099 46.7448 58.9414 46.6667 59.0508 46.5625C59.1602 46.4583 59.2435 46.3307 59.3008 46.1797L60.8398 46.2812C60.7617 46.651 60.6016 46.974 60.3594 47.25C60.1198 47.5234 59.8099 47.737 59.4297 47.8906C59.0521 48.0417 58.6159 48.1172 58.1211 48.1172ZM67.7334 42V43.25H64.0303V42H67.7334ZM64.8779 48V41.5664C64.8779 41.1315 64.9626 40.7708 65.1318 40.4844C65.3037 40.1979 65.5381 39.9831 65.835 39.8398C66.1318 39.6966 66.4691 39.625 66.8467 39.625C67.1019 39.625 67.335 39.6445 67.5459 39.6836C67.7594 39.7227 67.9183 39.7578 68.0225 39.7891L67.7256 41.0391C67.6605 41.0182 67.5798 40.9987 67.4834 40.9805C67.3896 40.9622 67.2933 40.9531 67.1943 40.9531C66.9495 40.9531 66.779 41.0104 66.6826 41.125C66.5863 41.237 66.5381 41.3945 66.5381 41.5977V48H64.8779ZM71.2461 48.1172C70.6393 48.1172 70.1146 47.9883 69.6719 47.7305C69.2318 47.4701 68.8919 47.1081 68.6523 46.6445C68.4128 46.1784 68.293 45.638 68.293 45.0234C68.293 44.4036 68.4128 43.862 68.6523 43.3984C68.8919 42.9323 69.2318 42.5703 69.6719 42.3125C70.1146 42.0521 70.6393 41.9219 71.2461 41.9219C71.8529 41.9219 72.3763 42.0521 72.8164 42.3125C73.2591 42.5703 73.6003 42.9323 73.8398 43.3984C74.0794 43.862 74.1992 44.4036 74.1992 45.0234C74.1992 45.638 74.0794 46.1784 73.8398 46.6445C73.6003 47.1081 73.2591 47.4701 72.8164 47.7305C72.3763 47.9883 71.8529 48.1172 71.2461 48.1172ZM71.2539 46.8281C71.5299 46.8281 71.7604 46.75 71.9453 46.5938C72.1302 46.4349 72.2695 46.2187 72.3633 45.9453C72.4596 45.6719 72.5078 45.3607 72.5078 45.0117C72.5078 44.6628 72.4596 44.3516 72.3633 44.0781C72.2695 43.8047 72.1302 43.5885 71.9453 43.4297C71.7604 43.2708 71.5299 43.1914 71.2539 43.1914C70.9753 43.1914 70.7409 43.2708 70.5508 43.4297C70.3633 43.5885 70.2214 43.8047 70.125 44.0781C70.0313 44.3516 69.9844 44.6628 69.9844 45.0117C69.9844 45.3607 70.0313 45.6719 70.125 45.9453C70.2214 46.2187 70.3633 46.4349 70.5508 46.5938C70.7409 46.75 70.9753 46.8281 71.2539 46.8281ZM75.2813 48V42H76.8945V43.0469H76.957C77.0664 42.6745 77.25 42.3932 77.5078 42.2031C77.7656 42.0104 78.0625 41.9141 78.3984 41.9141C78.4818 41.9141 78.5716 41.9193 78.668 41.9297C78.7643 41.9401 78.849 41.9544 78.9219 41.9727V43.4492C78.8438 43.4258 78.7357 43.4049 78.5977 43.3867C78.4596 43.3685 78.3333 43.3594 78.2188 43.3594C77.974 43.3594 77.7552 43.4128 77.5625 43.5195C77.3724 43.6237 77.2214 43.7695 77.1094 43.957C77 44.1445 76.9453 44.3607 76.9453 44.6055V48H75.2813ZM84.0391 48.1133C83.6563 48.1133 83.3151 48.0469 83.0156 47.9141C82.7161 47.7786 82.4792 47.5794 82.3047 47.3164C82.1328 47.0508 82.0469 46.7201 82.0469 46.3242C82.0469 45.9909 82.1081 45.7109 82.2305 45.4844C82.3529 45.2578 82.5195 45.0755 82.7305 44.9375C82.9414 44.7995 83.181 44.6953 83.4492 44.625C83.7201 44.5547 84.0039 44.5052 84.3008 44.4766C84.6497 44.4401 84.931 44.4062 85.1445 44.375C85.3581 44.3411 85.513 44.2917 85.6094 44.2266C85.7057 44.1615 85.7539 44.0651 85.7539 43.9375V43.9141C85.7539 43.6667 85.6758 43.4753 85.5195 43.3398C85.3659 43.2044 85.1471 43.1367 84.8633 43.1367C84.5638 43.1367 84.3255 43.2031 84.1484 43.3359C83.9714 43.4661 83.8542 43.6302 83.7969 43.8281L82.2578 43.7031C82.3359 43.3385 82.4896 43.0234 82.7188 42.7578C82.9479 42.4896 83.2435 42.2839 83.6055 42.1406C83.9701 41.9948 84.3919 41.9219 84.8711 41.9219C85.2044 41.9219 85.5234 41.9609 85.8281 42.0391C86.1354 42.1172 86.4076 42.2383 86.6445 42.4023C86.8841 42.5664 87.0729 42.7773 87.2109 43.0352C87.349 43.2904 87.418 43.5964 87.418 43.9531V48H85.8398V47.168H85.793C85.6966 47.3555 85.5677 47.5208 85.4063 47.6641C85.2448 47.8047 85.0508 47.9154 84.8242 47.9961C84.5977 48.0742 84.3359 48.1133 84.0391 48.1133ZM84.5156 46.9648C84.7604 46.9648 84.9766 46.9167 85.1641 46.8203C85.3516 46.7214 85.4987 46.5885 85.6055 46.4219C85.7122 46.2552 85.7656 46.0664 85.7656 45.8555V45.2188C85.7135 45.2526 85.6419 45.2839 85.5508 45.3125C85.4622 45.3385 85.362 45.3633 85.25 45.3867C85.138 45.4076 85.026 45.4271 84.9141 45.4453C84.8021 45.4609 84.7005 45.4753 84.6094 45.4883C84.4141 45.5169 84.2435 45.5625 84.0977 45.625C83.9518 45.6875 83.8385 45.7721 83.7578 45.8789C83.6771 45.9831 83.6367 46.1133 83.6367 46.2695C83.6367 46.4961 83.7188 46.6693 83.8828 46.7891C84.0495 46.9062 84.2604 46.9648 84.5156 46.9648ZM90.373 40V48H88.709V40H90.373ZM93.3701 40V48H91.7061V40H93.3701ZM98.4326 48L96.7998 42H98.4834L99.4131 46.0312H99.4678L100.437 42H102.089L103.073 46.0078H103.124L104.038 42H105.718L104.089 48H102.327L101.296 44.2266H101.222L100.19 48H98.4326ZM106.605 48V42H108.27V48H106.605ZM107.441 41.2266C107.194 41.2266 106.982 41.1445 106.805 40.9805C106.63 40.8138 106.543 40.6146 106.543 40.3828C106.543 40.1536 106.63 39.957 106.805 39.793C106.982 39.6263 107.194 39.543 107.441 39.543C107.689 39.543 107.9 39.6263 108.074 39.793C108.251 39.957 108.34 40.1536 108.34 40.3828C108.34 40.6146 108.251 40.8138 108.074 40.9805C107.9 41.1445 107.689 41.2266 107.441 41.2266ZM112.794 42V43.25H109.181V42H112.794ZM110.001 40.5625H111.665V46.1562C111.665 46.3099 111.688 46.4297 111.735 46.5156C111.782 46.599 111.847 46.6576 111.931 46.6914C112.017 46.7253 112.116 46.7422 112.228 46.7422C112.306 46.7422 112.384 46.7357 112.462 46.7227C112.54 46.707 112.6 46.6953 112.642 46.6875L112.903 47.9258C112.82 47.9518 112.703 47.9818 112.552 48.0156C112.401 48.0521 112.217 48.0742 112.001 48.082C111.6 48.0977 111.248 48.0443 110.946 47.9219C110.647 47.7995 110.414 47.6094 110.247 47.3516C110.08 47.0937 109.998 46.7682 110.001 46.375V40.5625ZM115.671 44.5313V48H114.007V40H115.624V43.0586H115.694C115.83 42.7044 116.049 42.4271 116.351 42.2266C116.653 42.0234 117.032 41.9219 117.487 41.9219C117.904 41.9219 118.267 42.013 118.577 42.1953C118.89 42.375 119.132 42.6341 119.304 42.9727C119.478 43.3086 119.564 43.7109 119.562 44.1797V48H117.897V44.4766C117.9 44.1068 117.806 43.819 117.616 43.6133C117.429 43.4076 117.166 43.3047 116.827 43.3047C116.601 43.3047 116.4 43.3529 116.226 43.4492C116.054 43.5456 115.918 43.6862 115.819 43.8711C115.723 44.0534 115.674 44.2734 115.671 44.5313ZM124.827 48H123.015L125.776 40H127.956L130.714 48H128.901L126.897 41.8281H126.835L124.827 48ZM124.714 44.8555H128.995V46.1758H124.714V44.8555ZM133.368 40V48H131.677V40H133.368Z" fill="#6B6B6B"/>
</svg>
