<svg width="18" height="17" viewBox="0 0 18 17" fill="none" xmlns="http://www.w3.org/2000/svg">
<path id="Messages" fill-rule="evenodd" clip-rule="evenodd" d="M15.875 4.25H13.375V1.75C13.375 1.05964 12.8154 0.5 12.125 0.5H2.125C1.43464 0.5 0.875 1.05964 0.875 1.75V11.75C0.875749 11.9899 1.0138 12.2083 1.23025 12.3118C1.44669 12.4154 1.70332 12.3859 1.89062 12.2359L4.625 10.0312V12.375C4.625 13.0654 5.18464 13.625 5.875 13.625H13.1867L16.1094 15.9859C16.22 16.0754 16.3578 16.1244 16.5 16.125C16.8452 16.125 17.125 15.8452 17.125 15.5V5.5C17.125 4.80964 16.5654 4.25 15.875 4.25V4.25ZM4.19922 8.76406L2.125 10.4414V1.75H12.125V8.625H4.59219C4.44914 8.62502 4.31043 8.6741 4.19922 8.76406V8.76406ZM15.875 14.1914L13.8008 12.5141C13.6902 12.4246 13.5524 12.3756 13.4102 12.375H5.875V9.875H12.125C12.8154 9.875 13.375 9.31536 13.375 8.625V5.5H15.875V14.1914Z" fill="white"/>
</svg>
