<svg width="20" height="20" viewBox="0 0 20 20" fill="none" xmlns="http://www.w3.org/2000/svg">
<path id="myClass" fill-rule="evenodd" clip-rule="evenodd" d="M19.4739 3.11638L10.2432 0.0394798C10.0853 -0.0131599 9.91455 -0.0131599 9.75665 0.0394798L0.525957 3.11638C0.211839 3.22109 -2.45374e-05 3.51507 2.13153e-09 3.84618V11.5384C2.13153e-09 11.9633 0.344393 12.3076 0.769224 12.3076C1.19405 12.3076 1.53845 11.9633 1.53845 11.5384V4.91348L4.76823 5.98943C2.98146 8.87609 3.86992 12.6644 6.75379 14.4557C5.02303 15.1345 3.52689 16.3624 2.43267 18.0412C2.27779 18.2714 2.25887 18.5672 2.38316 18.8152C2.50744 19.0633 2.75566 19.2252 3.03276 19.2389C3.30986 19.2527 3.5729 19.1162 3.72112 18.8816C5.17015 16.6586 7.45859 15.3845 9.99991 15.3845C12.5412 15.3845 14.8297 16.6586 16.2787 18.8816C16.5135 19.2305 16.9849 19.3263 17.3372 19.0965C17.6894 18.8668 17.7918 18.3967 17.5672 18.0412C16.4729 16.3624 14.971 15.1345 13.246 14.4557C16.127 12.6646 17.0151 8.87988 15.2316 5.99424L19.4739 4.58079C19.7881 4.47613 20 4.18214 20 3.85099C20 3.51983 19.7881 3.22584 19.4739 3.12118V3.11638ZM14.6153 9.23075C14.6158 11.2341 13.324 13.009 11.4175 13.6243C9.51105 14.2396 7.42533 13.5548 6.25464 11.9292C5.08396 10.3035 5.09565 8.10827 6.2836 6.49519L9.75665 7.64903C9.91455 7.70167 10.0853 7.70167 10.2432 7.64903L13.7162 6.49519C14.3006 7.28749 14.6157 8.24623 14.6153 9.23075ZM9.99991 6.1125L3.2019 3.84618L9.99991 1.57985L16.7979 3.84618L9.99991 6.1125Z" fill="white"/>
</svg>
