<svg width="20" height="25" viewBox="0 0 20 25" fill="none" xmlns="http://www.w3.org/2000/svg">
<g id="Notifed">
<path id="Combined Shape" fill-rule="evenodd" clip-rule="evenodd" d="M7.91935 22.3252C8.47944 22.9491 9.19848 23.2918 9.94454 23.2918H9.94563C10.6949 23.2918 11.4172 22.9491 11.9784 22.3241C12.279 21.9922 12.7915 21.9651 13.1234 22.2647C13.4565 22.5642 13.4835 23.0778 13.184 23.4097C12.3103 24.3796 11.161 24.9137 9.94563 24.9137H9.94346C8.73138 24.9126 7.58417 24.3785 6.71376 23.4086C6.41425 23.0767 6.44128 22.5631 6.77431 22.2647C7.10733 21.9641 7.61985 21.9911 7.91935 22.3252ZM9.99839 1.66675C14.8046 1.66675 18.0332 5.41005 18.0332 8.90575C18.0332 10.7039 18.4906 11.4662 18.9761 12.2749C19.4561 13.0729 20 13.979 20 15.6917C19.6226 20.0675 15.0543 20.4244 9.99839 20.4244C4.94244 20.4244 0.373062 20.0675 1.43118e-05 15.7609C-0.00321501 13.979 0.540656 13.0729 1.02073 12.2749L1.19021 11.9897C1.6075 11.2725 1.96359 10.4923 1.96359 8.90575C1.96359 5.41005 5.19221 1.66675 9.99839 1.66675ZM9.99839 3.28863C6.21941 3.28863 3.58547 6.24911 3.58547 8.90575C3.58547 11.1537 2.96159 12.1928 2.41015 13.1097C1.96791 13.846 1.61867 14.4277 1.61867 15.6917C1.79924 17.731 3.1454 18.8025 9.99839 18.8025C16.8135 18.8025 18.2019 17.6834 18.3814 15.6214C18.3781 14.4277 18.0289 13.846 17.5866 13.1097C17.0352 12.1928 16.4113 11.1537 16.4113 8.90575C16.4113 6.24911 13.7774 3.28863 9.99839 3.28863Z" fill="white"/>
<circle id="Ellipse 32" cx="16.25" cy="3.75" r="3.75" fill="white"/>
</g>
</svg>
